<mxfile host="app.diagrams.net" modified="2023-06-20T08:17:17.551Z" agent="Mozilla/5.0 (Windows NT 10.0; Win64; x64) AppleWebKit/537.36 (KHTML, like Gecko) Chrome/114.0.0.0 Safari/537.36" etag="ZSETWYxoSNM5WpeaBFH6" version="21.5.0" type="github">
  <diagram name="Page-1" id="gEg1V6Gbbd0wJ8AVt90H">
    <mxGraphModel dx="231" dy="122" grid="1" gridSize="5" guides="1" tooltips="1" connect="1" arrows="1" fold="1" page="1" pageScale="1" pageWidth="850" pageHeight="1100" math="0" shadow="0">
      <root>
        <mxCell id="0" />
        <mxCell id="1" parent="0" />
        <mxCell id="2SR5AFi4XdRwV4E2U-QK-1" value="1×3 Conv" style="rounded=1;whiteSpace=wrap;html=1;" vertex="1" parent="1">
          <mxGeometry x="354" y="101" width="55" height="28" as="geometry" />
        </mxCell>
        <mxCell id="2SR5AFi4XdRwV4E2U-QK-2" value="" style="endArrow=blockThin;html=1;rounded=0;endFill=1;strokeWidth=1;" edge="1" parent="1">
          <mxGeometry width="50" height="50" relative="1" as="geometry">
            <mxPoint x="480" y="40" as="sourcePoint" />
            <mxPoint x="480" y="80" as="targetPoint" />
          </mxGeometry>
        </mxCell>
        <mxCell id="2SR5AFi4XdRwV4E2U-QK-4" value="" style="endArrow=none;html=1;rounded=0;" edge="1" parent="1">
          <mxGeometry width="50" height="50" relative="1" as="geometry">
            <mxPoint x="380" y="80" as="sourcePoint" />
            <mxPoint x="580" y="80" as="targetPoint" />
          </mxGeometry>
        </mxCell>
        <mxCell id="2SR5AFi4XdRwV4E2U-QK-7" value="" style="endArrow=blockThin;html=1;rounded=0;endFill=1;" edge="1" parent="1">
          <mxGeometry width="50" height="50" relative="1" as="geometry">
            <mxPoint x="381" y="80" as="sourcePoint" />
            <mxPoint x="381" y="101" as="targetPoint" />
          </mxGeometry>
        </mxCell>
        <mxCell id="2SR5AFi4XdRwV4E2U-QK-10" value="" style="endArrow=blockThin;html=1;rounded=0;endFill=1;" edge="1" parent="1">
          <mxGeometry width="50" height="50" relative="1" as="geometry">
            <mxPoint x="381.48" y="129" as="sourcePoint" />
            <mxPoint x="381.48" y="141" as="targetPoint" />
          </mxGeometry>
        </mxCell>
        <mxCell id="2SR5AFi4XdRwV4E2U-QK-11" value="3×1 Conv" style="rounded=1;whiteSpace=wrap;html=1;" vertex="1" parent="1">
          <mxGeometry x="353" y="141" width="57" height="28" as="geometry" />
        </mxCell>
        <mxCell id="2SR5AFi4XdRwV4E2U-QK-14" value="Concat" style="rounded=1;whiteSpace=wrap;html=1;" vertex="1" parent="1">
          <mxGeometry x="354" y="192" width="57" height="28" as="geometry" />
        </mxCell>
        <mxCell id="2SR5AFi4XdRwV4E2U-QK-15" value="" style="endArrow=blockThin;html=1;rounded=0;endFill=1;exitX=0.492;exitY=1.015;exitDx=0;exitDy=0;exitPerimeter=0;" edge="1" parent="1" source="2SR5AFi4XdRwV4E2U-QK-11">
          <mxGeometry width="50" height="50" relative="1" as="geometry">
            <mxPoint x="381" y="171" as="sourcePoint" />
            <mxPoint x="381" y="192" as="targetPoint" />
          </mxGeometry>
        </mxCell>
        <mxCell id="2SR5AFi4XdRwV4E2U-QK-17" value="" style="endArrow=none;html=1;rounded=0;labelBackgroundColor=default;strokeColor=default;fontFamily=Helvetica;fontSize=11;fontColor=default;shape=connector;" edge="1" parent="1">
          <mxGeometry width="50" height="50" relative="1" as="geometry">
            <mxPoint x="480" y="206" as="sourcePoint" />
            <mxPoint x="480" y="80" as="targetPoint" />
          </mxGeometry>
        </mxCell>
        <mxCell id="2SR5AFi4XdRwV4E2U-QK-18" value="" style="endArrow=blockThin;html=1;rounded=0;endFill=1;entryX=1;entryY=0.5;entryDx=0;entryDy=0;" edge="1" parent="1" target="2SR5AFi4XdRwV4E2U-QK-14">
          <mxGeometry width="50" height="50" relative="1" as="geometry">
            <mxPoint x="480" y="206" as="sourcePoint" />
            <mxPoint x="431" y="212" as="targetPoint" />
          </mxGeometry>
        </mxCell>
        <mxCell id="2SR5AFi4XdRwV4E2U-QK-19" value="K" style="text;html=1;align=center;verticalAlign=middle;resizable=0;points=[];autosize=1;strokeColor=none;fillColor=none;fontSize=11;fontFamily=Helvetica;fontColor=default;" vertex="1" parent="1">
          <mxGeometry x="381" y="48" width="30" height="30" as="geometry" />
        </mxCell>
        <mxCell id="2SR5AFi4XdRwV4E2U-QK-20" value="Q" style="text;html=1;align=center;verticalAlign=middle;resizable=0;points=[];autosize=1;strokeColor=none;fillColor=none;fontSize=11;fontFamily=Helvetica;fontColor=default;" vertex="1" parent="1">
          <mxGeometry x="481" y="48" width="30" height="30" as="geometry" />
        </mxCell>
        <mxCell id="2SR5AFi4XdRwV4E2U-QK-22" value="V" style="text;html=1;align=center;verticalAlign=middle;resizable=0;points=[];autosize=1;strokeColor=none;fillColor=none;fontSize=11;fontFamily=Helvetica;fontColor=default;" vertex="1" parent="1">
          <mxGeometry x="555" y="48" width="30" height="30" as="geometry" />
        </mxCell>
        <mxCell id="2SR5AFi4XdRwV4E2U-QK-23" value="input" style="text;html=1;align=center;verticalAlign=middle;resizable=0;points=[];autosize=1;strokeColor=none;fillColor=none;fontSize=11;fontFamily=Helvetica;fontColor=default;" vertex="1" parent="1">
          <mxGeometry x="480" y="18" width="45" height="30" as="geometry" />
        </mxCell>
        <mxCell id="2SR5AFi4XdRwV4E2U-QK-24" value="&lt;p style=&quot;line-height: 100%;&quot;&gt;&lt;font style=&quot;font-size: 11px;&quot;&gt;H×W×C&lt;/font&gt;&lt;/p&gt;" style="text;html=1;align=center;verticalAlign=middle;resizable=0;points=[];autosize=1;strokeColor=none;fillColor=none;fontSize=11;fontFamily=Helvetica;fontColor=default;" vertex="1" parent="1">
          <mxGeometry x="418" y="8" width="65" height="50" as="geometry" />
        </mxCell>
        <mxCell id="2SR5AFi4XdRwV4E2U-QK-28" value="H×W×C" style="text;html=1;align=center;verticalAlign=middle;resizable=0;points=[];autosize=1;strokeColor=none;fillColor=none;fontSize=11;fontFamily=Helvetica;fontColor=default;" vertex="1" parent="1">
          <mxGeometry x="325" y="165" width="65" height="30" as="geometry" />
        </mxCell>
        <mxCell id="2SR5AFi4XdRwV4E2U-QK-30" value="" style="endArrow=blockThin;html=1;rounded=0;endFill=1;exitX=0.492;exitY=1.015;exitDx=0;exitDy=0;exitPerimeter=0;" edge="1" parent="1">
          <mxGeometry width="50" height="50" relative="1" as="geometry">
            <mxPoint x="381.33" y="220" as="sourcePoint" />
            <mxPoint x="381" y="251" as="targetPoint" />
          </mxGeometry>
        </mxCell>
        <mxCell id="2SR5AFi4XdRwV4E2U-QK-31" value="H×W×2C" style="text;html=1;align=center;verticalAlign=middle;resizable=0;points=[];autosize=1;strokeColor=none;fillColor=none;fontSize=11;fontFamily=Helvetica;fontColor=default;" vertex="1" parent="1">
          <mxGeometry x="323" y="215" width="70" height="30" as="geometry" />
        </mxCell>
        <mxCell id="2SR5AFi4XdRwV4E2U-QK-32" value="1×1 Conv" style="rounded=1;whiteSpace=wrap;html=1;" vertex="1" parent="1">
          <mxGeometry x="353" y="251" width="57" height="28" as="geometry" />
        </mxCell>
        <mxCell id="2SR5AFi4XdRwV4E2U-QK-33" value="1×1 Conv" style="rounded=1;whiteSpace=wrap;html=1;" vertex="1" parent="1">
          <mxGeometry x="426" y="251" width="57" height="28" as="geometry" />
        </mxCell>
        <mxCell id="2SR5AFi4XdRwV4E2U-QK-34" value="" style="endArrow=blockThin;html=1;rounded=0;endFill=1;entryX=0;entryY=0.5;entryDx=0;entryDy=0;" edge="1" parent="1" target="2SR5AFi4XdRwV4E2U-QK-33">
          <mxGeometry width="50" height="50" relative="1" as="geometry">
            <mxPoint x="410" y="264.95" as="sourcePoint" />
            <mxPoint x="430" y="264.95" as="targetPoint" />
          </mxGeometry>
        </mxCell>
        <mxCell id="2SR5AFi4XdRwV4E2U-QK-35" value="" style="endArrow=none;html=1;rounded=0;labelBackgroundColor=default;strokeColor=default;fontFamily=Helvetica;fontSize=11;fontColor=default;shape=connector;" edge="1" parent="1">
          <mxGeometry width="50" height="50" relative="1" as="geometry">
            <mxPoint x="580" y="203" as="sourcePoint" />
            <mxPoint x="580" y="80" as="targetPoint" />
          </mxGeometry>
        </mxCell>
        <mxCell id="2SR5AFi4XdRwV4E2U-QK-36" value="H×W×C" style="text;html=1;align=center;verticalAlign=middle;resizable=0;points=[];autosize=1;strokeColor=none;fillColor=none;fontSize=11;fontFamily=Helvetica;fontColor=default;" vertex="1" parent="1">
          <mxGeometry x="580" y="135" width="65" height="30" as="geometry" />
        </mxCell>
      </root>
    </mxGraphModel>
  </diagram>
</mxfile>
